<?xml version="1.0" encoding="UTF-8"?>
<svg version="1.1" xmlns="http://www.w3.org/2000/svg" width="256" height="190">
<path d="M0 0 C84.48 0 168.96 0 256 0 C256 62.7 256 125.4 256 190 C171.52 190 87.04 190 0 190 C0 127.3 0 64.6 0 0 Z " fill="#FEFEFE" transform="translate(0,0)"/>
<path d="M0 0 C2.49643175 0.03654384 4.99136485 0.04101694 7.48803711 0.04052734 C20.1571311 0.09505694 32.83905496 0.70097541 45.1474762 3.91790771 C47.96401907 4.64339481 50.80607418 5.2257373 53.65405273 5.81396484 C54.85094727 6.0646875 56.0478418 6.31541016 57.28100586 6.57373047 C59.75695255 7.08971516 62.23351636 7.60274757 64.71069336 8.11279297 C82.50882964 11.85624175 82.50882964 11.85624175 85.06420898 14.41162109 C85.41483398 13.75162109 85.76545898 13.09162109 86.12670898 12.41162109 C88.06420898 10.41162109 88.06420898 10.41162109 91.68920898 10.09912109 C95.06420898 10.41162109 95.06420898 10.41162109 96.06420898 11.41162109 C96.10484731 13.07779224 96.10692999 14.74550204 96.06420898 16.41162109 C96.64686523 16.36521484 97.22952148 16.31880859 97.82983398 16.27099609 C107.72270481 15.8354609 116.93880026 18.80237806 125.08374023 24.43896484 C127.52787856 26.8734616 128.60664708 29.35623933 130.06420898 32.47412109 C132.6397588 37.27508838 134.71359294 39.1995253 139.75634766 40.82763672 C143.50091809 41.82942762 147.26479294 42.64792337 151.06420898 43.41162109 C153.38968396 43.91930543 155.71144924 44.44023353 158.03149414 44.97216797 C159.46870098 45.29709619 160.90978055 45.6055215 162.35473633 45.89404297 C166.9967599 46.88560909 170.42446263 48.34128291 174.06420898 51.41162109 C174.69311523 53.52490234 174.69311523 53.52490234 174.62670898 55.72412109 C174.77064834 59.38857714 175.30925391 61.18486387 177.62670898 64.03662109 C179.84730098 66.78989845 180.06693804 67.43540288 180.50170898 71.22412109 C180.06420898 74.41162109 180.06420898 74.41162109 178.06420898 76.41162109 C175.31935306 76.55669805 172.67940355 76.59814532 169.93920898 76.53662109 C169.18510742 76.52759766 168.43100586 76.51857422 167.65405273 76.50927734 C165.79063644 76.4856898 163.92738306 76.44981828 162.06420898 76.41162109 C161.76514648 75.29529297 161.46608398 74.17896484 161.15795898 73.02880859 C160.15225771 69.70281082 159.74944569 68.42554862 157.06420898 66.41162109 C153.86692505 64.81297913 150.40045268 65.27869901 146.88925171 65.29136658 C146.03408042 65.29051215 145.17890912 65.28965773 144.29782355 65.28877741 C141.41573188 65.28712272 138.53369768 65.29264383 135.65161133 65.2980957 C133.59222922 65.2983776 131.53284701 65.29821979 129.47346497 65.2976532 C123.86838151 65.29736533 118.2633193 65.3032603 112.6582408 65.31022716 C106.80590388 65.31646251 100.95356653 65.31706464 95.10122681 65.31825256 C84.01254933 65.32136534 72.92388168 65.32957801 61.83520854 65.33960205 C49.21388002 65.35076485 36.59255104 65.35627406 23.97121882 65.36129749 C-1.99778991 65.37176067 -27.96678991 65.38935908 -53.93579102 65.41162109 C-53.60579102 64.42162109 -53.27579102 63.43162109 -52.93579102 62.41162109 C-35.61079102 61.42162109 -35.61079102 61.42162109 -17.93579102 60.41162109 C-20.01891602 58.82349609 -22.10204102 57.23537109 -24.24829102 55.59912109 C-46.30211115 38.4028227 -46.30211115 38.4028227 -48.47094727 26.46630859 C-48.84706738 21.00914773 -48.46959577 17.26980119 -44.93579102 12.97412109 C-42.96313477 11.08740234 -42.96313477 11.08740234 -40.93579102 9.41162109 C-40.38020508 8.93080078 -39.82461914 8.44998047 -39.25219727 7.95458984 C-28.32811764 -0.09857353 -12.97178671 -0.1953697 0 0 Z " fill="#FDFCF8" transform="translate(61.935791015625,42.58837890625)"/>
<path d="M0 0 C3.4375 0.1875 3.4375 0.1875 4.4375 1.1875 C4.47813832 2.85367115 4.480221 4.52138095 4.4375 6.1875 C5.02015625 6.14109375 5.6028125 6.0946875 6.203125 6.046875 C16.09599583 5.61133981 25.31209127 8.57825697 33.45703125 14.21484375 C35.90116958 16.64934051 36.9799381 19.13211824 38.4375 22.25 C41.01304982 27.05096729 43.08688396 28.97540421 48.12963867 30.60351562 C51.87420911 31.60530653 55.63808395 32.42380227 59.4375 33.1875 C61.76297498 33.69518434 64.08474025 34.21611244 66.40478516 34.74804688 C67.84199199 35.0729751 69.28307157 35.38140041 70.72802734 35.66992188 C75.37005092 36.66148799 78.79775364 38.11716181 82.4375 41.1875 C83.06640625 43.30078125 83.06640625 43.30078125 83 45.5 C83.14393935 49.16445604 83.68254492 50.96074278 86 53.8125 C88.220592 56.56577736 88.44022906 57.21128178 88.875 61 C88.4375 64.1875 88.4375 64.1875 86.4375 66.1875 C83.69264407 66.33257695 81.05269457 66.37402423 78.3125 66.3125 C77.55839844 66.30347656 76.80429688 66.29445313 76.02734375 66.28515625 C74.16392746 66.2615687 72.30067407 66.22569719 70.4375 66.1875 C70.1384375 65.07117188 69.839375 63.95484375 69.53125 62.8046875 C68.52554873 59.47868973 68.12273671 58.20142753 65.4375 56.1875 C62.24021606 54.58885803 58.77374369 55.05457792 55.26254272 55.06724548 C54.40737143 55.06639106 53.55220014 55.06553663 52.67111456 55.06465632 C49.7890229 55.06300162 46.9069887 55.06852273 44.02490234 55.07397461 C41.96552024 55.07425651 39.90613803 55.07409869 37.84675598 55.0735321 C32.24167253 55.07324424 26.63661031 55.07913921 21.03153181 55.08610606 C15.1791949 55.09234142 9.32685754 55.09294354 3.47451782 55.09413147 C-7.61415965 55.09724425 -18.70282731 55.10545692 -29.79150045 55.11548096 C-42.41282896 55.12664375 -55.03415794 55.13215297 -67.65549016 55.13717639 C-93.62449889 55.14763957 -119.5934989 55.16523799 -145.5625 55.1875 C-145.2325 54.1975 -144.9025 53.2075 -144.5625 52.1875 C-143.66909912 52.17291748 -142.77569824 52.15833496 -141.85522461 52.14331055 C-116.76731829 51.69775815 -91.75007521 50.53752298 -66.70042419 49.09747314 C-30.12428576 46.99668912 -30.12428576 46.99668912 -14.6875 47.125 C-13.594375 47.12951172 -12.50125 47.13402344 -11.375 47.13867188 C-8.77076468 47.15009396 -6.16667023 47.16626147 -3.5625 47.1875 C-3.5625 45.2075 -3.5625 43.2275 -3.5625 41.1875 C-29.9625 41.1875 -56.3625 41.1875 -83.5625 41.1875 C-83.5625 40.1975 -83.5625 39.2075 -83.5625 38.1875 C-82.55388916 38.1373877 -81.54527832 38.08727539 -80.50610352 38.03564453 C-75.71229165 37.79678124 -70.91862104 37.55516051 -66.125 37.3125 C-65.25246582 37.26836975 -64.37993164 37.2242395 -63.48095703 37.17877197 C-49.62660409 36.47520086 -35.77938194 35.68800687 -21.93579102 34.79736328 C-20.66791748 34.71728027 -19.40004395 34.63719727 -18.09375 34.5546875 C-16.99611328 34.48362793 -15.89847656 34.41256836 -14.76757812 34.33935547 C-11.361347 34.17796944 -7.9720407 34.16219229 -4.5625 34.1875 C-4.5625 33.1975 -4.5625 32.2075 -4.5625 31.1875 C-36.9025 31.1875 -69.2425 31.1875 -102.5625 31.1875 C-102.0675 29.7025 -102.0675 29.7025 -101.5625 28.1875 C-93.77658192 27.48370267 -86.01108178 26.9751169 -78.19921875 26.6875 C-77.16416702 26.64689453 -76.1291153 26.60628906 -75.06269836 26.56445312 C-71.79188976 26.43630994 -68.52096639 26.31154524 -65.25 26.1875 C-60.941307 26.02329823 -56.63270642 25.857007 -52.32421875 25.6875 C-51.28970078 25.64692978 -50.2551828 25.60635956 -49.1893158 25.56455994 C-43.53956748 25.33487089 -37.90542399 25.03454638 -32.265625 24.62890625 C-26.040734 24.18230473 -19.86387816 24.06840166 -13.625 24.125 C-12.64337891 24.12951172 -11.66175781 24.13402344 -10.65039062 24.13867188 C-8.28768862 24.15019725 -5.92513289 24.16645421 -3.5625 24.1875 C-3.5625 23.1975 -3.5625 22.2075 -3.5625 21.1875 C-23.0325 21.1875 -42.5025 21.1875 -62.5625 21.1875 C-62.0675 19.7025 -62.0675 19.7025 -61.5625 18.1875 C-54.57022446 17.6138836 -47.57759913 17.04468634 -40.5847168 16.47851562 C-38.20735588 16.28551595 -35.83007593 16.09151614 -33.45288086 15.89648438 C-30.02999489 15.61583779 -26.60683097 15.33882509 -23.18359375 15.0625 C-22.12603378 14.97500488 -21.06847382 14.88750977 -19.97886658 14.79736328 C-14.82064105 14.38448717 -9.73723013 14.08547205 -4.5625 14.1875 C-4.8925 13.1975 -5.2225 12.2075 -5.5625 11.1875 C-5.67882729 9.66983461 -5.73746239 8.1470654 -5.75 6.625 C-5.76417969 5.83996094 -5.77835938 5.05492187 -5.79296875 4.24609375 C-5.35282061 0.31460104 -3.70866513 0.1951929 0 0 Z " fill="#EEC554" transform="translate(153.5625,52.8125)"/>
<path d="M0 0 C64.02 0 128.04 0 194 0 C194 3.96 194 7.92 194 12 C160.01 12 126.02 12 91 12 C107.8443195 17.96435764 107.8443195 17.96435764 124.9375 22.3125 C126.02611328 22.55033203 127.11472656 22.78816406 128.23632812 23.03320312 C131.48438781 23.72907823 134.7371986 24.37712182 138 25 C139.02552979 25.19867676 140.05105957 25.39735352 141.10766602 25.60205078 C149.38378285 27.05138396 157.47291172 27.30895423 165.84790039 27.26074219 C168.06359089 27.24999471 170.27847405 27.26071925 172.49414062 27.2734375 C183.30735636 27.28624205 194.06638742 27.1779307 203.75 21.875 C205.5 20.91666667 207.25 19.95833333 209 19 C193.3670617 18.93021875 177.75346939 19.13728319 162.125 19.5 C159.96094249 19.54840057 157.79687998 19.59657859 155.6328125 19.64453125 C150.42181425 19.76047045 145.21089165 19.8793686 140 20 C140 19.01 140 18.02 140 17 C144.89091379 15.8146116 149.80782671 15.61294009 154.8125 15.31640625 C155.77663818 15.25597641 156.74077637 15.19554657 157.73413086 15.13328552 C161.83481832 14.87637334 165.93596912 14.6272485 170.03710938 14.37768555 C181.70821885 13.6629153 193.34365133 12.82788836 204.9793396 11.66564941 C211.65471614 11.00650892 218.30079311 10.63693307 225.0078125 10.52148438 C229.27240412 10.45722916 229.27240412 10.45722916 232.8984375 8.46484375 C233.26195312 7.98144531 233.62546875 7.49804688 234 7 C234.66 7 235.32 7 236 7 C237.16314671 13.18009275 237.37870371 17.40402198 234 23 C225.27582857 32.80879815 212.49109891 34.92804286 200 36 C159.25905385 38.24122687 115.46376991 30.39039933 78 14 C78 13.01 78 12.02 78 11 C78.99 10.67 79.98 10.34 81 10 C54.36620439 7.27090844 27.68748595 5.12753315 1 3 C0.67 2.01 0.34 1.02 0 0 Z " fill="#EFC554" transform="translate(9,110)"/>
<path d="M0 0 C2.49643175 0.03654384 4.99136485 0.04101694 7.48803711 0.04052734 C20.1571311 0.09505694 32.83905496 0.70097541 45.1474762 3.91790771 C47.96401907 4.64339481 50.80607418 5.2257373 53.65405273 5.81396484 C54.85094727 6.0646875 56.0478418 6.31541016 57.28100586 6.57373047 C59.75695255 7.08971516 62.23351636 7.60274757 64.71069336 8.11279297 C82.50882964 11.85624175 82.50882964 11.85624175 85.06420898 14.41162109 C85.10484731 16.07779224 85.10692999 17.74550204 85.06420898 19.41162109 C78.20697716 18.59958048 71.54087609 17.00691901 64.81420898 15.47412109 C60.23527665 14.43207171 55.65258574 13.41124648 51.06420898 12.41162109 C50.17185547 12.20569336 49.27950195 11.99976563 48.36010742 11.78759766 C40.64797045 10.15983703 32.95278767 10.03933762 25.10473633 10.04101562 C22.83134293 10.03665397 20.55991595 10.00024557 18.28686523 9.96240234 C4.18545479 9.85430564 -10.55083768 11.86516309 -21.43579102 21.66162109 C-23.5879742 25.60729026 -24.34235872 28.91797801 -23.93579102 33.41162109 C-22.74635589 37.08805695 -20.99242768 40.15440972 -18.93579102 43.41162109 C-18.53102539 44.19537109 -18.12625977 44.97912109 -17.70922852 45.78662109 C-15.99023351 48.47555182 -14.67066951 49.72240904 -11.93579102 51.41162109 C-9.02610684 51.81505309 -6.37215752 52.02971217 -3.45532227 52.09130859 C-2.62268356 52.12163681 -1.79004486 52.15196503 -0.93217468 52.18321228 C1.7330524 52.27582923 4.39822067 52.34483849 7.06420898 52.41162109 C8.79991477 52.46497603 10.53559263 52.51924777 12.27124023 52.57446289 C17.43089604 52.73167248 22.59105617 52.85501041 27.75170898 52.97412109 C29.54403265 53.01749555 31.33635041 53.06111441 33.12866211 53.10498047 C37.44044874 53.20999332 41.75230004 53.3117623 46.06420898 53.41162109 C46.55920898 55.39162109 46.55920898 55.39162109 47.06420898 57.41162109 C39.9151105 57.70036571 32.76584563 57.98469397 25.61645508 58.26611328 C23.1899834 58.36212823 20.76354987 58.45911281 18.3371582 58.55712891 C11.5356584 58.831541 4.73404574 59.08651792 -2.06930542 59.31063843 C-4.54893799 59.39799275 -7.02607924 59.50800016 -9.50439453 59.62573242 C-16.42739934 59.84678163 -20.34141562 59.73247155 -25.62329102 55.09912109 C-26.14600586 54.65125244 -26.6687207 54.20338379 -27.20727539 53.74194336 C-28.82108348 52.33473979 -30.37907062 50.88150269 -31.93579102 49.41162109 C-32.70463623 48.71456055 -32.70463623 48.71456055 -33.48901367 48.00341797 C-41.30235012 40.90628323 -47.93118759 34.29773078 -48.68579102 23.34912109 C-48.43306168 17.83119716 -46.92639566 14.87800633 -42.96313477 11.08740234 C-42.29411133 10.53439453 -41.62508789 9.98138672 -40.93579102 9.41162109 C-40.38020508 8.93080078 -39.82461914 8.44998047 -39.25219727 7.95458984 C-28.32811764 -0.09857353 -12.97178671 -0.1953697 0 0 Z " fill="#EEC554" transform="translate(61.935791015625,42.58837890625)"/>
<path d="M0 0 C4.55953286 -0.07628971 7.15392507 0.1599756 10.7912674 3.04845333 C12.7912674 6.04845333 12.7912674 6.04845333 12.7912674 12.04845333 C18.0712674 12.37845333 23.3512674 12.70845333 28.7912674 13.04845333 C28.7912674 13.37845333 28.7912674 13.70845333 28.7912674 14.04845333 C27.7909549 14.08583614 26.7906424 14.12321896 25.7600174 14.16173458 C15.50006345 14.60105358 5.32106497 15.45889148 -4.8962326 16.48595333 C-23.95880686 18.39513446 -43.07348974 19.2260513 -62.2087326 20.04845333 C-62.2087326 21.03845333 -62.2087326 22.02845333 -62.2087326 23.04845333 C-61.31782928 22.9499609 -61.31782928 22.9499609 -60.40892792 22.84947872 C-51.60433079 21.95672209 -42.79908516 21.71056561 -33.9587326 21.48595333 C-33.170914 21.46477444 -32.3830954 21.44359554 -31.5714035 21.42177486 C-18.44882246 21.07016424 -5.33618246 20.92589415 7.7912674 21.04845333 C-0.25250997 29.6308765 -11.67187301 30.95072917 -22.9786911 31.33862972 C-26.49325836 31.41782447 -30.00588296 31.4327076 -33.5212326 31.42345333 C-34.63815491 31.4231361 -34.63815491 31.4231361 -35.7776413 31.42281246 C-48.93214941 31.38571244 -61.3764254 30.04540859 -74.2087326 27.04845333 C-75.07627167 26.85589962 -75.94381073 26.66334591 -76.83763885 26.46495724 C-86.02017603 24.41736093 -95.00432532 21.9394294 -103.8962326 18.86095333 C-104.62181366 18.61103634 -105.34739471 18.36111935 -106.09496307 18.10362911 C-111.08262468 16.30066918 -111.08262468 16.30066918 -112.2087326 14.04845333 C-77.8887326 14.37845333 -43.5687326 14.70845333 -8.2087326 15.04845333 C-8.2087326 11.08845333 -8.2087326 7.12845333 -8.2087326 3.04845333 C-9.69797273 3.05121871 -9.69797273 3.05121871 -11.21729851 3.05403996 C-35.34396803 3.09838427 -59.47063228 3.13127877 -83.59733391 3.15207767 C-95.26468985 3.16240249 -106.93201891 3.17648577 -118.5993576 3.19933224 C-128.76530367 3.2192293 -138.93123027 3.23216099 -149.09719527 3.23663032 C-154.48297446 3.23924396 -159.86869798 3.24541202 -165.25445938 3.25991344 C-170.31867331 3.27343923 -175.38280837 3.27768616 -180.44703865 3.27466869 C-182.31031917 3.27522111 -184.17360219 3.27922823 -186.03686714 3.28686428 C-188.57174229 3.29674736 -191.10631574 3.29444672 -193.6411972 3.28896236 C-194.75888821 3.29770089 -194.75888821 3.29770089 -195.89915884 3.30661595 C-200.98049018 3.27669575 -200.98049018 3.27669575 -203.2087326 1.04845333 C-177.13975392 0.91782702 -151.07077409 0.78742881 -125.00179291 0.6573019 C-112.89743242 0.59687601 -100.79307231 0.53637556 -88.68871307 0.47569942 C-78.13816431 0.42281234 -67.58761486 0.37006533 -57.03706455 0.31748629 C-51.45102703 0.28964318 -45.86498988 0.2617301 -40.27895355 0.23364925 C-35.01939795 0.20721183 -29.75984145 0.18096194 -24.50028419 0.15485477 C-22.57180052 0.14524939 -20.64331718 0.13557598 -18.71483421 0.12582874 C-16.07705904 0.11250677 -13.43928275 0.09943208 -10.80150604 0.0864172 C-10.04272817 0.08252625 -9.28395029 0.0786353 -8.50217915 0.07462645 C-7.08928573 0.06775348 -5.67638109 0.06282479 -4.26347351 0.06014061 C-2.84219728 0.05205645 -1.42095735 0.03117178 0 0 Z " fill="#FCFAF2" transform="translate(211.20873260498047,106.95154666900635)"/>
<path d="M0 0 C4.55953286 -0.07628971 7.15392507 0.1599756 10.7912674 3.04845333 C12.7912674 6.04845333 12.7912674 6.04845333 12.7912674 12.04845333 C18.0712674 12.37845333 23.3512674 12.70845333 28.7912674 13.04845333 C28.7912674 13.37845333 28.7912674 13.70845333 28.7912674 14.04845333 C16.77447863 14.78713628 4.83069172 15.1871919 -7.2087326 15.04845333 C-7.2087326 11.08845333 -7.2087326 7.12845333 -7.2087326 3.04845333 C-8.20671309 3.05029692 -9.20469357 3.0521405 -10.23291588 3.05403996 C-34.48476346 3.09838416 -58.73660581 3.13127871 -82.98848534 3.15207767 C-94.71637536 3.16240251 -106.44423865 3.17648584 -118.17211151 3.19933224 C-128.39079529 3.21922923 -138.60945971 3.23216097 -148.82816231 3.23663032 C-154.24188706 3.23924397 -159.65555642 3.24541212 -165.06926346 3.25991344 C-170.15974211 3.27343911 -175.25014229 3.27768619 -180.34063721 3.27466869 C-182.21359304 3.27522111 -184.08655138 3.2792283 -185.95949173 3.28686428 C-188.50750356 3.29674717 -191.05521523 3.29444678 -193.60323334 3.28896236 C-194.72676077 3.29770089 -194.72676077 3.29770089 -195.87298572 3.30661595 C-200.98049018 3.27669575 -200.98049018 3.27669575 -203.2087326 1.04845333 C-177.13975392 0.91782702 -151.07077409 0.78742881 -125.00179291 0.6573019 C-112.89743242 0.59687601 -100.79307231 0.53637556 -88.68871307 0.47569942 C-78.13816431 0.42281234 -67.58761486 0.37006533 -57.03706455 0.31748629 C-51.45102703 0.28964318 -45.86498988 0.2617301 -40.27895355 0.23364925 C-35.01939795 0.20721183 -29.75984145 0.18096194 -24.50028419 0.15485477 C-22.57180052 0.14524939 -20.64331718 0.13557598 -18.71483421 0.12582874 C-16.07705904 0.11250677 -13.43928275 0.09943208 -10.80150604 0.0864172 C-10.04272817 0.08252625 -9.28395029 0.0786353 -8.50217915 0.07462645 C-7.08928573 0.06775348 -5.67638109 0.06282479 -4.26347351 0.06014061 C-2.84219728 0.05205645 -1.42095735 0.03117178 0 0 Z " fill="#F9F3E2" transform="translate(211.20873260498047,106.95154666900635)"/>
<path d="M0 0 C64.02 0 128.04 0 194 0 C194 0.33 194 0.66 194 1 C107.375 1.495 107.375 1.495 19 2 C18.67 2.66 18.34 3.32 18 4 C12.39 3.67 6.78 3.34 1 3 C0.67 2.01 0.34 1.02 0 0 Z " fill="#EAC562" transform="translate(9,110)"/>
<path d="M0 0 C16.90909091 1.69090909 16.90909091 1.69090909 20.5 6 C22 9 22 9 22 11 C12.595 11.495 12.595 11.495 3 12 C2.12007454 17.23866004 2.12007454 17.23866004 1.9375 22.375 C1.958125 23.57125 1.97875 24.7675 2 26 C2.66 26 3.32 26 4 26 C4 26.66 4 27.32 4 28 C2.68 28 1.36 28 0 28 C0 18.76 0 9.52 0 0 Z " fill="#FEFDFB" transform="translate(165,72)"/>
<path d="M0 0 C0.89090332 -0.00902344 1.78180664 -0.01804687 2.69970703 -0.02734375 C6.65950158 -0.00842377 8.69583587 0.00555725 12.0625 2.25 C4.54131048 2.68402549 -2.9802877 3.11037758 -10.50219727 3.53173828 C-13.05372649 3.67553625 -15.60516231 3.82100298 -18.15649414 3.96826172 C-32.09313066 4.77151032 -45.97481672 5.52124198 -59.9375 5.25 C-59.9375 4.92 -59.9375 4.59 -59.9375 4.25 C-53.5025 3.755 -53.5025 3.755 -46.9375 3.25 C-46.9375 2.92 -46.9375 2.59 -46.9375 2.25 C-13.83253483 0.05738649 -13.83253483 0.05738649 0 0 Z " fill="#F9F3E0" transform="translate(90.9375,99.75)"/>
<path d="M0 0 C0.33 0.66 0.66 1.32 1 2 C27.4 2 53.8 2 81 2 C81 3.98 81 5.96 81 8 C78.36 8 75.72 8 73 8 C73 7.67 73 7.34 73 7 C75.31 7 77.62 7 80 7 C80 5.68 80 4.36 80 3 C78.55991829 3.02212303 78.55991829 3.02212303 77.09074402 3.04469299 C67.95802542 3.18414773 58.82522843 3.31674837 49.69231701 3.4429636 C44.99916689 3.50803364 40.30607367 3.57535953 35.61303711 3.64819336 C31.06783488 3.71864397 26.5225801 3.782709 21.97722816 3.84269524 C20.25963493 3.86641816 18.54206966 3.8922848 16.82454491 3.92053413 C4.83811802 4.11571833 -7.03634013 3.76759145 -19 3 C-19 2.67 -19 2.34 -19 2 C-12.73 2 -6.46 2 0 2 C0 1.34 0 0.68 0 0 Z " fill="#F3E7C1" transform="translate(69,92)"/>
<path d="M0 0 C0 0.33 0 0.66 0 1 C-2.31 1.33 -4.62 1.66 -7 2 C5.87 2.495 5.87 2.495 19 3 C19 3.33 19 3.66 19 4 C3.49 4.33 -12.02 4.66 -28 5 C-28 4.01 -28 3.02 -28 2 C-18.97037968 -0.05454076 -9.23713222 -0.1885129 0 0 Z " fill="#EED07A" transform="translate(177,125)"/>
<path d="M0 0 C3.10408807 -0.05807043 6.2080364 -0.09361914 9.3125 -0.125 C10.19357422 -0.14175781 11.07464844 -0.15851563 11.98242188 -0.17578125 C12.82998047 -0.18222656 13.67753906 -0.18867187 14.55078125 -0.1953125 C15.72120972 -0.21102295 15.72120972 -0.21102295 16.9152832 -0.22705078 C19 0 19 0 22 2 C14.31516461 2.67453101 6.71589817 3.1567564 -1 3 C-0.67 2.01 -0.34 1.02 0 0 Z " fill="#EECB67" transform="translate(9,105)"/>
<path d="M0 0 C2.375 0.6875 2.375 0.6875 3.375 1.6875 C3.41563832 3.35367115 3.417721 5.02138095 3.375 6.6875 C-0.65492782 6.13437265 -4.64522924 5.5316938 -8.625 4.6875 C-7.635 4.3575 -6.645 4.0275 -5.625 3.6875 C-5.625 3.0275 -5.625 2.3675 -5.625 1.6875 C-2.625 -0.3125 -2.625 -0.3125 0 0 Z " fill="#EECA65" transform="translate(143.625,55.3125)"/>
<path d="M0 0 C1.65 0 3.3 0 5 0 C3.68 0.33 2.36 0.66 1 1 C1.0721875 2.134375 1.144375 3.26875 1.21875 4.4375 C1.31262811 5.95832543 1.40637087 7.47915922 1.5 9 C1.54769531 9.74378906 1.59539062 10.48757812 1.64453125 11.25390625 C1.94435744 16.17962224 2.04486229 21.06514776 2 26 C2.66 26 3.32 26 4 26 C4 26.66 4 27.32 4 28 C2.68 28 1.36 28 0 28 C0 18.76 0 9.52 0 0 Z " fill="#F5E8C2" transform="translate(165,72)"/>
<path d="M0 0 C5.94 0.33 11.88 0.66 18 1 C18 1.33 18 1.66 18 2 C7.63496744 2.91987611 -2.60330359 3.1132812 -13 3 C-13 2.67 -13 2.34 -13 2 C-6.565 1.505 -6.565 1.505 0 1 C0 0.67 0 0.34 0 0 Z " fill="#F3E6BF" transform="translate(44,102)"/>
<path d="M0 0 C-0.33 0.99 -0.66 1.98 -1 3 C-6.61 2.67 -12.22 2.34 -18 2 C-18 1.67 -18 1.34 -18 1 C-11.96445452 0.30739642 -6.07593562 -0.11251733 0 0 Z " fill="#EFCC6C" transform="translate(28,111)"/>
<path d="M0 0 C3.63 0 7.26 0 11 0 C9.68 0.33 8.36 0.66 7 1 C7 1.66 7 2.32 7 3 C4.69 2.67 2.38 2.34 0 2 C0 1.34 0 0.68 0 0 Z " fill="#EDC34B" transform="translate(87,122)"/>
</svg>
